<svg viewBox="0 0 500 500" xmlns="http://www.w3.org/2000/svg" xmlns:xlink="http://www.w3.org/1999/xlink" width="100%" id="blobSvg">
    <defs>
        <linearGradient id="gradient" x1="0%" y1="0%" x2="0%" y2="100%">
            <stop offset="0%" style="stop-color: rgb(194, 229, 156);"></stop>
            <stop offset="100%" style="stop-color: rgb(100, 179, 244);"></stop>
        </linearGradient>
    </defs>
    <path id="blob" d="M420,285.5Q396,321,377.5,353.5Q359,386,327.5,418Q296,450,247.5,461.5Q199,473,173.5,425.5Q148,378,114,355Q80,332,83,291Q86,250,81.5,208.5Q77,167,94,121Q111,75,162,82.5Q213,90,250.5,87Q288,84,331.5,88.5Q375,93,388,135Q401,177,422.5,213.5Q444,250,420,285.5Z" fill="url(#gradient)"></path>
</svg>
