<svg viewBox="0 0 500 500" xmlns="http://www.w3.org/2000/svg" xmlns:xlink="http://www.w3.org/1999/xlink" width="100%" id="blobSvg">
    <defs>
        <linearGradient id="gradient" x1="0%" y1="0%" x2="0%" y2="100%">
            <stop offset="0%" style="stop-color: rgb(194, 229, 156);"></stop>
            <stop offset="100%" style="stop-color: rgb(100, 179, 244);"></stop>
        </linearGradient>
    </defs>
    <path id="blob" d="M465,299Q453,348,415.5,379.5Q378,411,341.5,450.5Q305,490,256.5,462.5Q208,435,183,400Q158,365,143,337Q128,309,112.5,279.5Q97,250,103.5,216Q110,182,112.5,131Q115,80,165,87.5Q215,95,247.5,107Q280,119,342,88Q404,57,394.5,121Q385,185,431,217.5Q477,250,465,299Z" fill="url(#gradient)"></path>
</svg>
