<?xml version="1.0" encoding="UTF-8"?><svg xmlns="http://www.w3.org/2000/svg" viewBox="0 0 100 100"><defs><style>.d{fill:#f92a82;}</style></defs><g id="a"/><g id="b"><g id="c"><g><path class="d" d="M14.83,49.91h0c.08-19.27,15.72-34.86,35-34.86,7.82,0,15.03,2.56,20.86,6.89V4.47C64.39,1.6,57.38,0,50,0,22.39,0,0,22.39,0,50c0,13.9,5.67,26.47,14.83,35.54V49.91Z"/><path class="d" d="M84.83,14.13V49.91h0s0,.09,0,.14c0,19.33-15.67,35-35,35-7.82,0-15.03-2.56-20.86-6.89v17.21c6.39,2.97,13.52,4.63,21.03,4.63,27.61,0,50-22.39,50-50,0-14.07-5.81-26.78-15.17-35.87Z"/><circle class="d" cx="49.65" cy="49.91" r="20.71"/></g></g></g></svg>